<svg width="100%" viewBox="0 0 680 356" role="img" xmlns="http://www.w3.org/2000/svg"><title>Change-point detection on a one-dimensional signal</title><desc>A noisy one-dimensional signal shown as scattered points, with a bold piecewise-constant fit across five segments and four dashed vertical lines marking the detected change-points.</desc><style>:root{--text-muted:#8a9099;--border:#d2d6db;--border-strong:#aab0b6}.ts{font:12px system-ui,sans-serif;fill:#6c727a}</style><line x1="60" y1="237.5" x2="640" y2="237.5" stroke="var(--border)" stroke-width="0.75" stroke-dasharray="2 5" opacity="0.7"/><line x1="60" y1="175.0" x2="640" y2="175.0" stroke="var(--border)" stroke-width="0.75" stroke-dasharray="2 5" opacity="0.7"/><line x1="60" y1="112.5" x2="640" y2="112.5" stroke="var(--border)" stroke-width="0.75" stroke-dasharray="2 5" opacity="0.7"/><line x1="60" y1="50" x2="60" y2="300" stroke="var(--border-strong)" stroke-width="1"/><line x1="60" y1="300" x2="640" y2="300" stroke="var(--border-strong)" stroke-width="1"/><line x1="175" y1="46" x2="175" y2="300" stroke="#1D9E75" stroke-width="1.2" stroke-dasharray="4 4" opacity="0.6"/><line x1="300" y1="46" x2="300" y2="300" stroke="#1D9E75" stroke-width="1.2" stroke-dasharray="4 4" opacity="0.6"/><line x1="410" y1="46" x2="410" y2="300" stroke="#1D9E75" stroke-width="1.2" stroke-dasharray="4 4" opacity="0.6"/><line x1="520" y1="46" x2="520" y2="300" stroke="#1D9E75" stroke-width="1.2" stroke-dasharray="4 4" opacity="0.6"/><g fill="var(--text-muted)" opacity="0.55"><circle cx="62" cy="154.2" r="1.7"/><circle cx="67" cy="142.0" r="1.7"/><circle cx="72" cy="148.8" r="1.7"/><circle cx="77" cy="155.7" r="1.7"/><circle cx="82" cy="152.1" r="1.7"/><circle cx="87" cy="138.4" r="1.7"/><circle cx="92" cy="146.9" r="1.7"/><circle cx="97" cy="151.6" r="1.7"/><circle cx="102" cy="142.6" r="1.7"/><circle cx="107" cy="154.8" r="1.7"/><circle cx="112" cy="144.3" r="1.7"/><circle cx="117" cy="145.1" r="1.7"/><circle cx="122" cy="163.3" r="1.7"/><circle cx="127" cy="158.9" r="1.7"/><circle cx="132" cy="155.3" r="1.7"/><circle cx="137" cy="145.6" r="1.7"/><circle cx="142" cy="146.2" r="1.7"/><circle cx="147" cy="156.5" r="1.7"/><circle cx="152" cy="146.0" r="1.7"/><circle cx="157" cy="157.8" r="1.7"/><circle cx="162" cy="155.8" r="1.7"/><circle cx="167" cy="154.4" r="1.7"/><circle cx="172" cy="164.1" r="1.7"/><circle cx="177" cy="227.8" r="1.7"/><circle cx="182" cy="250.9" r="1.7"/><circle cx="187" cy="256.3" r="1.7"/><circle cx="192" cy="245.3" r="1.7"/><circle cx="197" cy="231.1" r="1.7"/><circle cx="202" cy="249.7" r="1.7"/><circle cx="207" cy="247.3" r="1.7"/><circle cx="212" cy="246.9" r="1.7"/><circle cx="217" cy="257.4" r="1.7"/><circle cx="222" cy="243.2" r="1.7"/><circle cx="227" cy="249.9" r="1.7"/><circle cx="232" cy="257.7" r="1.7"/><circle cx="237" cy="242.7" r="1.7"/><circle cx="242" cy="252.8" r="1.7"/><circle cx="247" cy="256.7" r="1.7"/><circle cx="252" cy="247.5" r="1.7"/><circle cx="257" cy="243.7" r="1.7"/><circle cx="262" cy="242.2" r="1.7"/><circle cx="267" cy="248.4" r="1.7"/><circle cx="272" cy="255.2" r="1.7"/><circle cx="277" cy="240.6" r="1.7"/><circle cx="282" cy="239.5" r="1.7"/><circle cx="287" cy="254.8" r="1.7"/><circle cx="292" cy="235.7" r="1.7"/><circle cx="297" cy="247.3" r="1.7"/><circle cx="302" cy="94.9" r="1.7"/><circle cx="307" cy="79.3" r="1.7"/><circle cx="312" cy="99.5" r="1.7"/><circle cx="317" cy="98.1" r="1.7"/><circle cx="322" cy="84.1" r="1.7"/><circle cx="327" cy="101.6" r="1.7"/><circle cx="332" cy="91.0" r="1.7"/><circle cx="337" cy="98.0" r="1.7"/><circle cx="342" cy="97.8" r="1.7"/><circle cx="347" cy="83.4" r="1.7"/><circle cx="352" cy="111.9" r="1.7"/><circle cx="357" cy="76.0" r="1.7"/><circle cx="362" cy="97.6" r="1.7"/><circle cx="367" cy="74.8" r="1.7"/><circle cx="372" cy="96.4" r="1.7"/><circle cx="377" cy="81.8" r="1.7"/><circle cx="382" cy="81.1" r="1.7"/><circle cx="387" cy="94.8" r="1.7"/><circle cx="392" cy="105.4" r="1.7"/><circle cx="397" cy="103.8" r="1.7"/><circle cx="402" cy="92.1" r="1.7"/><circle cx="407" cy="93.6" r="1.7"/><circle cx="412" cy="215.0" r="1.7"/><circle cx="417" cy="210.1" r="1.7"/><circle cx="422" cy="209.8" r="1.7"/><circle cx="427" cy="206.6" r="1.7"/><circle cx="432" cy="197.1" r="1.7"/><circle cx="437" cy="199.0" r="1.7"/><circle cx="442" cy="207.7" r="1.7"/><circle cx="447" cy="222.9" r="1.7"/><circle cx="452" cy="204.1" r="1.7"/><circle cx="457" cy="205.4" r="1.7"/><circle cx="462" cy="211.7" r="1.7"/><circle cx="467" cy="210.5" r="1.7"/><circle cx="472" cy="206.0" r="1.7"/><circle cx="477" cy="208.8" r="1.7"/><circle cx="482" cy="215.5" r="1.7"/><circle cx="487" cy="198.3" r="1.7"/><circle cx="492" cy="213.0" r="1.7"/><circle cx="497" cy="202.1" r="1.7"/><circle cx="502" cy="212.6" r="1.7"/><circle cx="507" cy="207.1" r="1.7"/><circle cx="512" cy="214.8" r="1.7"/><circle cx="517" cy="216.6" r="1.7"/><circle cx="522" cy="170.5" r="1.7"/><circle cx="527" cy="168.2" r="1.7"/><circle cx="532" cy="163.7" r="1.7"/><circle cx="537" cy="157.3" r="1.7"/><circle cx="542" cy="155.4" r="1.7"/><circle cx="547" cy="157.4" r="1.7"/><circle cx="552" cy="158.4" r="1.7"/><circle cx="557" cy="141.7" r="1.7"/><circle cx="562" cy="155.3" r="1.7"/><circle cx="567" cy="153.5" r="1.7"/><circle cx="572" cy="167.6" r="1.7"/><circle cx="577" cy="148.5" r="1.7"/><circle cx="582" cy="177.4" r="1.7"/><circle cx="587" cy="146.1" r="1.7"/><circle cx="592" cy="165.1" r="1.7"/><circle cx="597" cy="163.0" r="1.7"/><circle cx="602" cy="168.3" r="1.7"/><circle cx="607" cy="149.9" r="1.7"/><circle cx="612" cy="159.3" r="1.7"/><circle cx="617" cy="149.3" r="1.7"/><circle cx="622" cy="156.0" r="1.7"/><circle cx="627" cy="154.4" r="1.7"/><circle cx="632" cy="161.4" r="1.7"/><circle cx="637" cy="144.9" r="1.7"/></g><path d="M 60 150.0 L 175 150.0 L 175 245.0 L 300 245.0 L 300 95.0 L 410 95.0 L 410 210.0 L 520 210.0 L 520 160.0 L 640 160.0" fill="none" stroke="#0F6E56" stroke-width="2.5" stroke-linejoin="round"/><circle cx="66" cy="328" r="3" fill="var(--text-muted)"/><text class="ts" x="78" y="332">noisy signal</text><line x1="178" y1="328" x2="204" y2="328" stroke="#0F6E56" stroke-width="2.5"/><text class="ts" x="212" y="332">piecewise-constant fit</text><line x1="372" y1="322" x2="372" y2="334" stroke="#1D9E75" stroke-width="1.4" stroke-dasharray="3 3"/><text class="ts" x="382" y="332">change-point</text></svg>